<?xml version="1.0" standalone="no"?>
<!DOCTYPE svg PUBLIC "-//W3C//DTD SVG 20010904//EN"
 "http://www.w3.org/TR/2001/REC-SVG-20010904/DTD/svg10.dtd">
<svg version="1.0" xmlns="http://www.w3.org/2000/svg"
 width="260.000000pt" height="260.000000pt" viewBox="0 0 260.000000 260.000000"
 preserveAspectRatio="xMidYMid meet">
<metadata>
Created by potrace 1.11, written by Peter Selinger 2001-2013
</metadata>
<g transform="translate(0.000000,260.000000) scale(0.100000,-0.100000)"
fill="#000000" stroke="none">
<path d="M960 1305 l0 -185 65 0 c58 0 65 2 65 20 0 17 -7 20 -40 20 l-40 0 0
165 0 165 -25 0 -25 0 0 -185z"/>
<path d="M1134 1349 c-15 -17 -19 -37 -19 -104 0 -97 16 -125 70 -125 54 0 70
28 70 125 0 97 -16 125 -70 125 -20 0 -39 -8 -51 -21z m71 -104 c0 -73 -2 -80
-20 -80 -18 0 -20 8 -23 69 -3 81 1 99 25 94 15 -3 18 -15 18 -83z"/>
<path d="M1319 1353 c-22 -26 -25 -177 -5 -208 18 -27 54 -33 75 -12 10 10 12
4 9 -28 -2 -33 -7 -41 -25 -43 -16 -2 -23 2 -23 12 0 10 -9 16 -25 16 -29 0
-32 -16 -9 -48 18 -26 79 -30 110 -8 17 13 19 30 22 175 l3 161 -25 0 c-14 0
-26 -5 -26 -12 0 -9 -3 -9 -12 0 -17 17 -53 15 -69 -5z m69 -35 c7 -7 12 -41
12 -80 0 -53 -4 -70 -16 -75 -26 -10 -38 14 -38 80 0 81 13 104 42 75z"/>
<path d="M1514 1349 c-15 -17 -19 -37 -19 -104 0 -97 16 -125 70 -125 54 0 70
28 70 125 0 97 -16 125 -70 125 -20 0 -39 -8 -51 -21z m71 -104 c0 -73 -2 -80
-20 -80 -18 0 -20 8 -23 69 -3 81 1 99 25 94 15 -3 18 -15 18 -83z"/>
</g>
</svg>
